<svg xmlns="http://www.w3.org/2000/svg" width="414" height="77" viewBox="0 0 414.27 77.02" fill="none" aria-describedby="logo-computer-science-linear" role="img">
  <title id="logo-computer-science-linear">Princeton Computer Science</title>
  <g>
    <g>
      <g>
        <path fill="white" d="M58.87,32.47c2.66-12.34,1.29-21.23,1.29-21.23C39.68,16.78,30.25,0,30.25,0,30.25,0,20.83,16.78.35,11.24c0,0-1.37,8.89,1.29,21.23h57.22Z"/>
        <path fill="white" d="M30.25,33.54l-20.6,19.94c1.85,3.26,4.05,6.55,6.66,9.81l13.94-13.74,13.94,13.74c2.6-3.26,4.8-6.56,6.66-9.81l-20.6-19.94Z"/>
        <path fill="white" d="M30.25,33.54l-20.6,19.94c1.85,3.26,4.05,6.55,6.66,9.81l13.94-13.74,13.94,13.74c2.6-3.26,4.8-6.56,6.66-9.81l-20.6-19.94Z"/>
        <path fill="white" d="M30.25,2.7c.94,1.25,2.38,2.94,4.35,4.63,6.3,5.41,13,6.55,17.51,6.55,2.18,0,4.43-.25,6.72-.75.24,3.06.47,10.14-1.45,19.03-1.56,7.24-4.2,14.16-7.85,20.58-1.89,3.33-4.09,6.57-6.52,9.62-3.65,4.58-7.94,8.86-12.76,12.73-4.82-3.87-9.1-8.15-12.76-12.73-2.43-3.05-4.63-6.29-6.52-9.62-3.65-6.42-6.29-13.35-7.85-20.58-1.34-6.21-1.61-11.5-1.61-14.84,0-1.76.08-3.19.16-4.19,2.29.5,4.54.75,6.72.75,8.17,0,14.03-3.56,17.51-6.55,1.97-1.69,3.41-3.38,4.35-4.63ZM30.25,0s-6.94,12.36-21.86,12.36c-2.46,0-5.14-.34-8.04-1.12,0,0-1.37,8.89,1.29,21.23,1.37,6.34,3.79,13.59,8.02,21.01,1.85,3.26,4.05,6.55,6.66,9.81,3.74,4.69,8.33,9.33,13.94,13.72,5.61-4.39,10.19-9.03,13.94-13.72,2.6-3.26,4.8-6.56,6.66-9.81,4.22-7.43,6.65-14.67,8.02-21.01,2.66-12.34,1.29-21.23,1.29-21.23-2.9.78-5.58,1.12-8.04,1.12C37.22,12.36,30.27,0,30.27,0h-.02Z"/>
      </g>
    </g>
    <path fill="white" d="M82.3,0h-1.51v77.02h1.51V0Z"/>
    <path fill="white" d="M112.03,12.75c0,3.61-1.88,4.85-4.65,4.85h-2.11v8.92h-4.39V4.58h6.5c2.8,0,4.65,1.24,4.65,4.82v3.35ZM107.67,13.16v-4.1c0-1.04-.35-1.33-1.3-1.33h-1.1v6.79h1.1c.95,0,1.3-.29,1.3-1.36ZM118.47,26.53h-4.39V4.58h6.04c3.12,0,5.05.98,5.05,4.74v2.45c0,1.99-1.24,3.18-3.23,3.61v.12c1.88.52,2.74,1.79,3.06,4.01.09.64.12,1.36.17,2.19.09,2.45.29,4.07.72,4.68v.14h-4.53c-.29-.29-.52-1.42-.52-2.43v-5.26c0-1.79-.63-2.14-1.68-2.14h-.69v9.82ZM119.54,13.85c.78,0,1.3-.26,1.3-1.47v-3.73c0-.87-.29-1.16-1.24-1.16h-1.13v6.35h1.07ZM132.53,4.58v21.95h-4.39V4.58h4.39ZM146.54,26.53h-4.16l-2.77-11.64c-.4-1.76-.75-3.38-.95-4.48h-.17c.03,1.13.09,2.89.09,4.59v11.52h-3.32V4.58h4.79l2.14,9.76c.35,1.7.72,3.7.93,4.88h.17c0-1.21-.09-3.06-.09-5.05V4.58h3.35v21.95ZM153.55,8.97v13.17c0,1.1.55,1.47,1.39,1.47s1.3-.38,1.3-1.47v-4.71l3.87,1.07v3.09c0,3.41-1.88,5.23-5.37,5.23-3.15,0-5.57-1.67-5.57-5.43v-11.67c0-3.67,2.43-5.43,5.57-5.43,3.47,0,5.37,1.79,5.37,5.23v2.51l-3.87,1.07v-4.13c0-1.1-.46-1.47-1.3-1.47s-1.39.38-1.39,1.47ZM170.8,13.56v3.32h-3.81v6.35h4.85v3.29h-9.24V4.58h9.1v3.32h-4.71v5.66h3.81ZM180.79,7.9v18.63h-4.39V7.9h-3.44v-3.32h11.26v3.32h-3.44ZM197.2,9.64v11.81c0,3.87-2.69,5.37-5.78,5.37s-5.78-1.5-5.78-5.37v-11.81c0-3.84,2.69-5.34,5.78-5.34s5.78,1.5,5.78,5.34ZM192.81,8.97c0-1.1-.55-1.47-1.39-1.47s-1.39.38-1.39,1.47v13.17c0,1.1.55,1.47,1.39,1.47s1.39-.38,1.39-1.47v-13.17ZM211.11,26.53h-4.16l-2.77-11.64c-.4-1.76-.75-3.38-.95-4.48h-.17c.03,1.13.09,2.89.09,4.59v11.52h-3.32V4.58h4.79l2.14,9.76c.35,1.7.72,3.7.92,4.88h.17c0-1.21-.09-3.06-.09-5.05V4.58h3.35v21.95Z"/>
    <path fill="#f58025" d="M108.36,44.39v21.08c0,1.76.88,2.36,2.22,2.36s2.08-.6,2.08-2.36v-7.53l6.19,1.71v4.95c0,5.45-3.01,8.37-8.6,8.37-5.04,0-8.92-2.68-8.92-8.69v-18.67c0-5.87,3.88-8.69,8.92-8.69,5.55,0,8.6,2.87,8.6,8.37v4.02l-6.19,1.71v-6.61c0-1.76-.74-2.36-2.08-2.36s-2.22.6-2.22,2.36ZM141.15,45.45v18.9c0,6.19-4.3,8.6-9.24,8.6s-9.24-2.4-9.24-8.6v-18.9c0-6.15,4.3-8.55,9.24-8.55s9.24,2.4,9.24,8.55ZM134.12,44.39c0-1.76-.88-2.36-2.22-2.36s-2.22.6-2.22,2.36v21.08c0,1.76.88,2.36,2.22,2.36s2.22-.6,2.22-2.36v-21.08ZM170.08,72.49h-6.38v-20.38c0-2.26.09-5.41.14-6.98h-.32c-.18,1.48-.37,3.56-.65,6.33l-2.4,21.03h-6.47l-2.4-21.03c-.28-2.77-.46-4.85-.65-6.33h-.32c.09,1.57.14,4.71.14,6.98v20.38h-5.41v-35.13h9.8l1.8,15.62c.32,2.87.56,5.82.74,7.86h.23c.23-2.03.42-4.99.74-7.86l1.85-15.62h9.57v35.13ZM192.32,50.44c0,5.78-3,7.76-7.44,7.76h-3.37v14.28h-7.03v-35.13h10.4c4.48,0,7.44,1.99,7.44,7.72v5.36ZM185.34,51.09v-6.56c0-1.66-.56-2.13-2.08-2.13h-1.76v10.86h1.76c1.52,0,2.08-.46,2.08-2.17ZM213.79,64.22c0,5.96-3.6,8.74-9.15,8.74s-9.2-2.77-9.2-8.74v-26.85h7.03v27.78c0,1.76.79,2.36,2.13,2.36s2.22-.6,2.22-2.36v-27.78h6.98v26.85ZM228.95,42.68v29.81h-7.03v-29.81h-5.5v-5.32h18.03v5.32h-5.5ZM250.51,51.74v5.32h-6.1v10.17h7.76v5.27h-14.79v-35.13h14.56v5.32h-7.53v9.06h6.1ZM262.57,72.49h-7.02v-35.13h9.66c4.99,0,8.09,1.57,8.09,7.58v3.93c0,3.19-1.99,5.08-5.18,5.78v.18c3,.83,4.39,2.87,4.9,6.42.14,1.02.19,2.17.28,3.51.14,3.93.46,6.52,1.16,7.49v.23h-7.26c-.46-.46-.83-2.26-.83-3.88v-8.41c0-2.87-1.02-3.42-2.68-3.42h-1.11v15.71ZM264.28,52.2c1.25,0,2.08-.42,2.08-2.36v-5.96c0-1.39-.46-1.85-1.99-1.85h-1.8v10.17h1.71ZM290.21,59.09c-.14,1.76-.28,3.28-.28,5.04,0,2.73.69,3.84,2.4,3.84s2.17-.97,2.17-3.28c0-2.03-.74-3.97-1.9-5.22-1.62-1.66-4.53-4.21-6.01-5.82-1.57-1.85-2.68-4.76-2.68-8.23,0-5.73,3.19-8.5,8.51-8.5s8.09,2.54,8.09,7.67c0,1.16-.09,2.26-.28,3.24l-5.82,1.06c.14-1.39.28-2.59.28-3.84,0-2.26-.79-3.1-2.08-3.1-1.52,0-2.03.83-2.03,2.96,0,1.9.6,3.47,1.8,4.71,1.2,1.11,4.35,4.02,6.29,6.33,1.25,1.48,2.54,4.85,2.54,7.86,0,6.79-3.19,9.15-8.74,9.15s-8.74-2.91-8.74-8.83c0-1.2.05-2.91.18-3.79l6.29-1.25ZM311.52,44.39v21.08c0,1.76.88,2.36,2.22,2.36s2.08-.6,2.08-2.36v-7.53l6.19,1.71v4.95c0,5.45-3.01,8.37-8.6,8.37-5.04,0-8.92-2.68-8.92-8.69v-18.67c0-5.87,3.88-8.69,8.92-8.69,5.55,0,8.6,2.87,8.6,8.37v4.02l-6.19,1.71v-6.61c0-1.76-.74-2.36-2.08-2.36s-2.22.6-2.22,2.36ZM333.03,37.36v35.13h-7.02v-35.13h7.02ZM350.53,51.74v5.32h-6.1v10.17h7.77v5.27h-14.79v-35.13h14.56v5.32h-7.53v9.06h6.1ZM373.77,72.49h-6.66l-4.44-18.63c-.65-2.82-1.2-5.41-1.53-7.16h-.28c.05,1.8.14,4.62.14,7.35v18.44h-5.32v-35.13h7.67l3.42,15.62c.55,2.73,1.15,5.92,1.48,7.81h.28c0-1.94-.14-4.9-.14-8.09v-15.35h5.36v35.13ZM385,44.39v21.08c0,1.76.88,2.36,2.22,2.36s2.08-.6,2.08-2.36v-7.53l6.19,1.71v4.95c0,5.45-3,8.37-8.6,8.37-5.04,0-8.92-2.68-8.92-8.69v-18.67c0-5.87,3.88-8.69,8.92-8.69,5.55,0,8.6,2.87,8.6,8.37v4.02l-6.19,1.71v-6.61c0-1.76-.74-2.36-2.08-2.36s-2.22.6-2.22,2.36ZM412.61,51.74v5.32h-6.1v10.17h7.76v5.27h-14.79v-35.13h14.56v5.32h-7.53v9.06h6.1Z"/>
  </g>
</svg>
